/* XPM */
static char *result[] = {
/* columns rows colors chars-per-pixel */
"64 70 239 2 ",
"   c #000000",
".  c #0B0201",
"X  c #0B0B0B",
"o  c #040906",
"O  c #140000",
"+  c #1B0101",
"@  c #170D08",
"#  c #001809",
"$  c #151404",
"%  c #1B1A08",
"&  c #030318",
"*  c #1B1B1B",
"=  c #161515",
"-  c #001F17",
";  c #230000",
":  c #2A0100",
">  c #390000",
",  c #261811",
"<  c #003418",
"1  c #0F2A19",
"2  c #272500",
"3  c #37291C",
"4  c #2B2D15",
"5  c #03013C",
"6  c #100B33",
"7  c #012423",
"8  c #002A29",
"9  c #1D2121",
"0  c #033934",
"q  c #242626",
"w  c #363C3A",
"e  c #312F27",
"r  c #4A0000",
"t  c #450000",
"y  c #540000",
"u  c #5D0101",
"i  c #561112",
"p  c #6C0101",
"a  c #650101",
"s  c #730101",
"d  c #790302",
"f  c #6B1203",
"g  c #423715",
"h  c #513A2A",
"j  c #6A1D2A",
"k  c #4D4C09",
"l  c #464524",
"z  c #5A4E30",
"x  c #674936",
"c  c #685338",
"v  c #73553C",
"b  c #77583C",
"n  c #734631",
"m  c #77731E",
"M  c #010444",
"N  c #0E0950",
"B  c #02167B",
"V  c #070D6A",
"C  c #3C4342",
"Z  c #114040",
"A  c #454D4C",
"S  c #454848",
"D  c #4C5453",
"F  c #4E5858",
"G  c #545C5B",
"H  c #545857",
"J  c #49504F",
"K  c #785A42",
"L  c #625548",
"P  c #57605F",
"I  c #7D6445",
"U  c #7A7743",
"Y  c #656550",
"T  c #5B6463",
"R  c #5E6867",
"E  c #5D6766",
"W  c #616C69",
"Q  c #6C7776",
"!  c #767D7D",
"~  c #6B6C73",
"^  c #880202",
"/  c #9B0202",
"(  c #950605",
")  c #921710",
"_  c #A30404",
"`  c #AC0303",
"'  c #B70503",
"]  c #BE1E1E",
"[  c #8D0826",
"{  c #BD0929",
"}  c #A22A15",
"|  c #C30202",
" . c #CD0605",
".. c #D40505",
"X. c #DC0606",
"o. c #D7091B",
"O. c #D91A1A",
"+. c #D1170E",
"@. c #EC0B0A",
"#. c #E50606",
"$. c #FF0101",
"%. c #FF0A03",
"&. c #F40A0A",
"*. c #FE0A0A",
"=. c #F80507",
"-. c #F7160A",
";. c #FE0B17",
":. c #FE1313",
">. c #FF1D1D",
",. c #F61A15",
"<. c #E71415",
"1. c #C80828",
"2. c #D60B27",
"3. c #FD0828",
"4. c #F41124",
"5. c #C92929",
"6. c #FF2F27",
"7. c #A31879",
"8. c #8D187E",
"9. c #F5124F",
"0. c #E81974",
"q. c #C6114D",
"w. c #836A47",
"e. c #867249",
"r. c #B57E7E",
"t. c #DE7E7E",
"y. c #96910F",
"u. c #B3AA00",
"i. c #AFA611",
"p. c #D3CB00",
"a. c #FDCF0F",
"s. c #FFFC00",
"d. c #FEFE1D",
"f. c #EDFF3A",
"g. c #86844D",
"h. c #8B884C",
"j. c #989554",
"k. c #958C50",
"l. c #A69F5B",
"z. c #A7A35B",
"x. c #B7AE5F",
"c. c #B2AA62",
"v. c #BAB766",
"b. c #A5A36F",
"n. c #C2BD6B",
"m. c #C4BE5E",
"M. c #C9C56E",
"N. c #C7C36D",
"B. c #D5D268",
"V. c #CDC970",
"C. c #C3C07E",
"Z. c #D5D275",
"A. c #D8D677",
"S. c #DAD778",
"D. c #DCD97A",
"F. c #D9D679",
"G. c #CDD277",
"H. c #E1DE7C",
"J. c #D5EF71",
"K. c #E3E07E",
"L. c #D9E154",
"P. c #001985",
"I. c #001986",
"U. c #021E95",
"Y. c #0C1295",
"T. c #152098",
"R. c #0022A6",
"E. c #002CBB",
"W. c #2433B4",
"Q. c #292897",
"!. c #737F85",
"~. c #032CD7",
"^. c #0B2AC5",
"/. c #3033D4",
"(. c blue",
"). c #0334EB",
"_. c #0134E6",
"`. c #1437EA",
"'. c #0337FA",
"]. c #0538FC",
"[. c #0838FA",
"{. c #0637F6",
"}. c #133BFD",
"|. c #1939FB",
" X c #1739F6",
".X c #0029F0",
"XX c #2638FB",
"oX c #2C37F6",
"OX c #4536F3",
"+X c #2943F5",
"@X c #5F3EB6",
"#X c #8E218B",
"$X c #D91E8D",
"%X c #E41C84",
"&X c #D22097",
"*X c #8C2FDA",
"=X c #A62CC9",
"-X c #8A7BDB",
";X c #798685",
":X c #8A9998",
">X c #979A98",
",X c #82908B",
"<X c #BD8E8E",
"1X c #95A594",
"2X c #8A94A3",
"3X c #97A7A9",
"4X c #9BABB4",
"5X c #A9A8A8",
"6X c #A1B1AF",
"7X c #BDBCBC",
"8X c #B4B4B3",
"9X c #ACB2B3",
"0X c #FD9191",
"qX c #C0BDBD",
"wX c #C9A5A5",
"eX c #FDA9A9",
"rX c #E9B7B8",
"tX c #B6CB8F",
"yX c #DAD78E",
"uX c #C6D788",
"iX c #E9E681",
"pX c #DFDCA3",
"aX c #9C9ECF",
"sX c #BDC2C2",
"dX c #C9C9CA",
"fX c #C6CBCC",
"gX c #DCDCDC",
"hX c #D9D7D7",
"jX c #D3CBC9",
"kX c #FCC9C9",
"lX c #FFDCDC",
"zX c #E5C4C5",
"xX c #E6E7E6",
"cX c #F7E9E9",
"vX c #FFFFFF",
"bX c #F8F6F4",
"nX c #F0F0F1",
"mX c #D8DEE1",
"MX c None",
/* pixels */
"MXMXMXMXMXMXMXMXMXMXMXMXMXMXMXMXMXMXMXMXMXMXMXMXMXMXMXMXMXMXMXMXMXMXMXMXMXMXMXMXMXMXMXMXMXMXMXMXMXMXMXMXMXMXMXMXMXMXMXMXMXMXMXMX",
"MXMXMXMXMXMXMXMXMXMXMXMXMXMXMXMXMXMXMXMXMXMXMXMXMXMXMXMXMXMXMXMXMXMXMXMXMXMXMXMXMXMXMXMXMXMXMXMXMXMXMXMXMXMXMXMXMXMXMXMXMXMXMXMX",
"MXMXMXMXMXMXMXMXMXMXMXMXMXMXMXMXMXMXMXMXMXMXMXMXMXMXMXMX                MXMXMXMXMXMXMXMXMXMXMXMXMXMXMXMXMXMXMXMXMXMXMXMXMXMXMXMX",
"MXMXMXMXMXMXMXMXMXMXMXMXMXMXMXMXMXMXMXMXMXMXMXMXMXMXMXMX                MXMXMXMXMXMXMXMXMXMXMXMXMXMXMXMXMXMXMXMXMXMXMXMXMXMXMXMX",
"MXMXMXMXMXMXMXMXMXMXMXMXMXMXMXMXMXMXMXMXMXMX      :   ( X.X.X.X.X.X.X.X.^   MXMXMXMXMXMXMXMXMXMXMXMXMXMXMXMXMXMXMXMXMXMXMXMXMXMX",
"MXMXMXMXMXMXMXMXMXMXMXMXMXMXMXMXMXMXMXMXMX. O         ( *.*.*.*.*.*.*.*.( X MXMXMXMXMXMXMXMXMXMXMXMXMXMXMXMXMXMXMXMXMXMXMXMXMXMX",
"MXMXMXMXMXMXMXMXMXMXMXMXMXMXMXMXMXMXMXMX; ;   / X. . .#.*.*.*.*.*.*.*.*.O.O.) . MXMXMXMXMXMXMXMXMXMXMXMXMXMXMXMXMXMXMXMXMXMXMXMX",
"MXMXMXMXMXMXMXMXMXMXMXMXMXMXMXMXMXMXMX      o | ;.*.*.*.*.*.*.*.*.*.:.*.$.$.` X ; MXMXMXMXMXMXMXMXMXMXMXMXMXMXMXMXMXMXMXMXMXMXMX",
"MXMXMXMXMXMXMXMXMXMXMXMXMXMXMXMXMXMX> `  .' ' #.*.*.*.*.*.*.*.*.*.:.*.:.eXkXr.  , MXMXMXMXMXMXMXMXMXMXMXMXMXMXMXMXMXMXMXMXMXMXMX",
"MXMXMXMXMXMXMXMXMXMXMXMXMXMXMXMXMX    #.*.*.*.*.*.*.*.*.*.*.*.*.*.>.$.$.lXvX5X  q MXMXMXMXMXMXMXMXMXMXMXMXMXMXMXMXMXMXMXMXMXMXMX",
"MXMXMXMXMXMXMXMXMXMXMXMXMXMXMXMXMX_ ` @.*.*.*.*.*.*.*.*.*.*.*.:.=.6.0XeXcXvX5X  q MXMXMXMXMXMXMXMXMXMXMXMXMXMXMXMXMXMXMXMXMXMXMX",
"MXMXMXMXMXMXMXMXMXMXMXMXMXMXMX    =.*.*.*.*.*.*.*.*.*.*.*.*.%.>.$.6.bXvXvXvX8X  MXMXMXMXMXMXMXMXMXMXMXMXMXMXMXMXMXMXMXMXMXMXMXMX",
"MXMXMXMXMXMXMXMXMXMXMXMXMXMXMX( _ &.*.*.*.*.*.*.*.*.*.=.X.X.X.O.X.5.jXgXhXgX>X  , MXMXMXMXMXMXMXMXMXMXMXMXMXMXMXMXMXMXMXMXMXMXMX",
"MXMXMXMXMXMXMXMXMXMXMXMXMX  p =.*.*.*.*.*.*.*.*.*.*.*.X.        . .               .   MXMXMXMXMXMXMXMXMXMXMXMXMXMXMXMXMXMXMXMXMX",
"MXMXMXMXMXMXMXMXMXMXMXMXMX  d &.*.*.*.*.*.*.*.&.#.#.@. .p p d p s s s s d s d s d ^ s MXMXMXMXMXMXMXMXMXMXMXMXMXMXMXMXMXMXMXMXMX",
"MXMXMXMXMXMXMXMXMXMXMX      u =.*.*.*.*.*.*.*.'   .   ( *.*.*.*.*.*.>.>.>.>.:.%.*.*...    MXMXMXMXMXMXMXMXMXMXMXMXMXMXMXMXMXMXMX",
"MXMXMXMXMXMXMXMXMXMXMXp p y ^ &.*.*.*.-.<.-.,.' > a > / &.&.-.,.,.,.4.,.,.-.@.&.&.*...    MXMXMXMXMXMXMXMXMXMXMXMXMXMXMXMXMXMXMX",
"MXMXMXMXMXMXMXMXMX  _ &.&.&.=.*.*.*.&.( ; u : ' *.%.*.X.y r y r t t t t r r y : | *...    .   MXMXMXMXMXMXMXMXMXMXMXMXMXMXMXMXMX",
"MXMXMXMXMXMXMXMXMX  _ *.*.*.*.*.*.*.-.) < 4 < ] :.,.:.+.# # < < Z Z 0 0 < < -   ` :. .    O   MXMXMXMXMXMXMXMXMXMXMXMXMXMXMXMXMX",
"MXMXMXMXMXMXMXMXMX  _ *.*.*.*.*.,.^ f x.V.N.B.k.y a p u   c m.uXxXnXnXnXpXm.h.  i d p MXMXMXMXMXMXMXMXMXMXMXMXMXMXMXMXMXMXMXMXMX",
"MXMXMXMXMXMXMXMXMX  _ *.*.*.*.*.,.y # n.H.Z.H.j.  # # #   Y B.yXvXvXvXvXpXD.j.  # o   MXMXMXMXMXMXMXMXMXMXMXMXMXMXMXMXMXMXMXMXMX",
"MXMXMXMXMXMXMXMXMX  _ *.*.*.&./ ) n c v.S.Z.A.M.v.v.n.v.v.n.B.yXbXvX5X! C.D.h.  % MXMXMXMXMXMXMXMXMXMXMXMXMXMXMXMXMXMXMXMXMXMXMX",
"MXMXMXMXMXMXMXMXMX  _ *.*.*.@.O < v I N.A.Z.Z.A.D.F.D.D.H.D.B.yXbXvXG   c.iXk.  MXMXMXMXMXMXMXMXMXMXMXMXMXMXMXMXMXMXMXMXMXMXMXMX",
"MXMXMXMXMXMXMXMXMXMX^ _ / _ ( > 2 c I N.S.Z.Z.Z.Z.Z.Z.Z.Z.Z.V.yXbXvX!   v.H.h.  % $ $ $ MXMXMXMXMXMXMXMXMXMXMXMXMXMXMXMXMXMXMXMX",
"MXMXMXMXMXMXMXMXMXMXMX          , v w.n.D.F.F.F.Z.Z.F.Z.Z.F.B.yXvXvX~   v.H.g.            MXMXMXMXMXMXMXMXMXMXMXMXMXMXMXMXMXMXMX",
"MXMXMXMXMXMXMXMXMXMXMXMX; ; +   % h z j.c.l.z.n.F.Z.Z.Z.Z.Z.Z.Z.8X8Xb.z.N.A.v.j.j.z.z.z.j.% MXMXMXMXMXMXMXMXMXMXMXMXMXMXMXMXMXMX",
"MXMXMXMXMXMXMXMXMXMXMXMXMX      o     x K v n c.F.Z.Z.F.Z.Z.H.M.    V.iXD.A.D.K.K.K.D.iXN.%   MXMXMXMXMXMXMXMXMXMXMXMXMXMXMXMXMX",
"MXMXMXMXMXMXMXMXMXMXMXMXMX          . h x x h z.F.Z.Z.Z.Z.Z.F.V.z = j.z.z.z.x.c.c.c.c.v.j.$   MXMXMXMXMXMXMXMXMXMXMXMXMXMXMXMXMX",
"MXMXMXMXMXMXMXMXMXMXMXMXMX                    z.K.A.Z.Z.Z.Z.H.n.4           h K K K v K x .   MXMXMXMXMXMXMXMXMXMXMXMXMXMXMXMXMX",
"MXMXMXMXMXMXMXMXMXMXMXMXMX              o 3 3 k.n.N.Z.Z.Z.Z.F.V.j.U l o %   h c x c x c z X   MXMXMXMXMXMXMXMXMXMXMXMXMXMXMXMXMX",
"MXMXMXMXMXMXMXMXMXMXMXMXMXMXMX            x w.b x l.H.H.F.H.Z.Z.D.Z.z o   $               MXMXMXMXMXMXMXMXMXMXMXMXMXMXMXMXMXMXMX",
"MXMXMXMXMXMXMXMXMXMXMXMXMXMXMX      . & 5 z b v x k.n.n.n.n.Z.Z.A.Z.h.c e   X             MXMXMXMXMXMXMXMXMXMXMXMXMXMXMXMXMXMXMX",
"MXMXMXMXMXMXMXMXMXMXMXMXMXMXMXMXMXMXMX    o   o o e w.I K k.Z.D.A.A.D.A.U   % o .   . MXMXMXMXMXMXMXMXMXMXMXMXMXMXMXMXMXMXMXMXMX",
"MXMXMXMXMXMXMXMXMXMXMXMXMXMXMXMXMXMXMXV B j p p p n v b n e.M.V.M.M.V.V.U   3 = * * * MXMXMXMXMXMXMXMXMXMXMXMXMXMXMXMXMXMXMXMXMX",
"MXMXMXMXMXMXMXMXMXMXMXMXMXMXMXMXMX  O ~.[.&X%.4.*.+.- - o e w.e.e.e.w.w.I K g         MXMXMXMXMXMXMXMXMXMXMXMXMXMXMXMXMXMXMXMXMX",
"MXMXMXMXMXMXMXMXMXMXMXMXMXMXMXMXMX5 N OXoX&X$.;.&. .@ t > i v v v v v v I I L S S J J MXMXMXMXMXMXMXMXMXMXMXMXMXMXMXMXMXMXMXMXMX",
"MXMXMXMXMXMXMXMXMXMXMXMXMXMXMX  6 _.oX$X9.9.%.*.*.&.&.@.&.O.3 < 4 1 1 9 .   7XbXxXbXdX    X   MXMXMXMXMXMXMXMXMXMXMXMXMXMXMXMXMX",
"MXMXMXMXMXMXMXMXMXMXMXMXMXMXMX  N `.XX0.$.4.%.*.*.*.*.*.*.&.>   : + + + =   fXvXvXvXhX  * =   MXMXMXMXMXMXMXMXMXMXMXMXMXMXMXMXMX",
"MXMXMXMXMXMXMXMXMXMXMXMXMX  &   N ).|.%X$.3.%.*.*.*.*.*.*.&.@.#.#.O.#.#.zXxXbXvXvXvXbXxXdX*   *   MXMXMXMXMXMXMXMXMXMXMXMXMXMXMX",
"MXMXMXMXMXMXMXMXMXMXMXMXMX  &   6 ).XX$X$.3.%.*.*.*.*.*.*.*.&.*.*.>.$.$.cXvXvXvXvXvXvXvXxX9   9   MXMXMXMXMXMXMXMXMXMXMXMXMXMXMX",
"MXMXMXMXMXMXMXMXMXMXMX  l U U % 6 {.XX%X$.3.*.*.*.*.*.*.*.*.*.&.*.:.$.%.r.,XgXvXvXvXvXvXgX9   *       MXMXMXMXMXMXMXMXMXMXMXMXMX",
"MXMXMXMXMXMXMXMXMXMXMX  l j.h.2 5 ).XX%X$.3.%.*.*.*.*.*.*.*.*.*.*.*.*.:.^   jXvXvXvXvXvXxX9   q o o o MXMXMXMXMXMXMXMXMXMXMXMXMX",
"MXMXMXMXMXMXMXMXMXMXMX  l j.g.2 5 {.|.#X' 2.%.*.*.*.*.*.*.*.*.*.*.*.*.:.O.' <X9X8X9X9X8X>X=   , $ $ $ MXMXMXMXMXMXMXMXMXMXMXMXMX",
"MXMXMXMXMXMXMXMXMXMXMX  l j.g.2 5 `.|.B   ..*.%.%.*.*.*.*.*.*.*.*.*.%.%.%.>.` o                       MXMXMXMXMXMXMXMXMXMXMXMXMX",
"MXMXMXMXMXMXMXMXMXMXMX  l j.g.2 M `.|.^.R.7. .1.{ o.%.*.&.*.*.*.*.*.1.1.1.' #XE.W.W.W.W.W.o k i.u.u.u.m MXMXMXMXMXMXMXMXMXMXMXMX",
"MXMXMXMXMXMXMXMXMXMXMX  l j.g.2 M `.[.[.}.U.      ` ;.*.*.*.*.%.;.%.p       ^.}.[.[.].|._.& k d.s.s.s.y.  $         MXMXMXMXMXMX",
"MXMXMXMXMXMXMXMXMXMX5X  l j.g.2 M `.].[.[.^.T.T.R.8...2.2.o.2.1.o.1.#XR.T.T.~.].[.'.|..XOXy.u.a.a.p.p.m 6 w w w w w MXMXMXMXMXMX",
"MXMXMXMXMXMXvXvXvXvXhX  l j.g.2 M `.].[.[.}.}.}.}.^.                _.[.|.}.}.[.[.'.+X(.aXd.s.6.=.a   G T T T T T S     MXMXMXMX",
"MXMXMXMXMXMXxXnXxXxX7X  3 g.U % M `.[.[.[.[.].[.].~.B P.I.I.I.I.P.I.).[.[.'.'.[.].].+X(.-Xa.a.6.=.s   S F F D G T A     MXMXMXMX",
"MXMXMXMXMXMX            o   &   M ).[.[.[.[.[.[.].}. X X|.|.|.|.|.|.[.[.[.[.[.[.].].oX].*X;.$.4.-.f o :       C R A     MXMXMXMX",
"MXMXMXMXMXMX          q 9   &   M ).[.[.[.].[.[.[.[.].].].].'.[.'.].'.[.[.[.[.{.[.'.oX].*X3.$.3.#.a   3 9 q 9 C P C     MXMXMXMX",
"MXMXMXMXMXMX= = =   w T D   o   M {.[.].].].[.[.[.[.[.[.{.[.].[.[.[.[.[.[.[.[.[.].'.|.].*X4.=.i > +   D P P T C   X     MXMXMXMX",
"MXMXMXMXMXMX    = X C E F 9 * o M _.{. XXX X{.[.[.[.[.[.[.[.[.[.[.[.[.{.[.[.[.'. X}.OXoX*X;.=.= o = * F T T E C   X     MXMXMXMX",
"MXMXMXMX        C F F P G F J X o N V M 5 ~.[.].].].[.[.[.[.[.[.[.[.].].[.[.].}.].].*X9.9.;.&.r o D P G G G P F P S     MXMXMXMX",
"MXMXMXMX    X   C R E T T R G 9   .   2 2 /.}. X X[.{.[.[.[.[.{.[.[. X X X X X XoX].=X$.$.;.@.r 7 G E T T T E P E A     MXMXMXMX",
"MXMXMXMX    C D Q 3X:X3X:X>X:XG D & & fXnX2XV P.V E.[.[.{.].].[.[.{.U.B P.B B P.7.0.0.;.<.^ j H F G P ,X3X:X3X! G A     MXMXMXMX",
"MXMXMXMX    J P ;X6X3X3X6X6X3XW T   X xXvX>X    o Y.|. X X}.}. X}.}.V   o o o o ' -.%.:.#.  7 G R T P 3X4X4X4X;XF S     MXMXMXMX",
"MXMXMXMX    A F ;X4XtXJ.G.6X:XR H 7 + t.0XzXmXhXmX9XY.U.T.U.U.T.U.Q.q.o.2.2.2.2.{ [ [ / ^ : e G R ;X:XuXJ.J.J.tX:X;XD C     MXMX",
"MXMXMXMX    A P ,X4XtXf.J.6X3XW H 8 + #.$.lXvXvXvXdX                #.$.$.$.%.$.'     o o   q H W 3X4XJ.f.f.f.uX4X:XP D     MXMX",
"MXMXMXMX    A T Q ;X1XtXtX;X!.R G 7 O O.$.0XeXeXeXrXfXdXdXfXdXdXdXdXkXkXkXkXkXkXzXfXwX..` . 8 G T !.;XtXtXtXuX1X;XQ P J     MXMX",
"MXMXMXMX    J W P A ! 4X:XF F P G 7 + <.:.$.$.$.$.eXvXvXvXvXvXvXvXvXvXvXvXvXvXvXvXvXlX*.=.+ 7 P T F F :X4X4X4X;XA G E D     MXMX",
"MXMXMXMXMX  w C F G Q ,X;XP P P G 7 . ` ' ] 5.5.| r.sX7X7X7X7X7X7X7XqXqXqXqXqXqX7XsX<X| ` MX7 S C P E ;X,X;X,XQ T H C C   MXMXMX",
"MXMXMXMXMXMX    C E P P P E P R T q   o         o                                     o   MXMX  # P R P G P G T R A     MXMXMXMX",
"MXMXMXMXMXMXMX  w A A A A A A J A 9   + + + + + + = * * * * * * * * * * * * * * * * = + MXMXMX  = C J A A A A A A C   MXMXMXMXMX",
"MXMXMXMXMXMXMXMXMX                MXMXMXMXMXMXMXMXMXMXMXMXMXMXMXMXMXMXMXMXMXMXMXMXMXMXMXMXMXMXMXMX                  MXMXMXMXMXMX",
"MXMXMXMXMXMXMXMXMX                MXMXMXMXMXMXMXMXMXMXMXMXMXMXMXMXMXMXMXMXMXMXMXMXMXMXMXMXMXMXMXMX                MXMXMXMXMXMXMX",
"MXMXMXMXMXMXMXMXMXMXMXMXMXMXMXMXMXMXMXMXMXMXMXMXMXMXMXMXMXMXMXMXMXMXMXMXMXMXMXMXMXMXMXMXMXMXMXMXMXMXMXMXMXMXMXMXMXMXMXMXMXMXMXMX",
"MXMXMXMXMXMXMXMXMXMXMXMXMXMXMXMXMXMXMXMXMXMXMXMXMXMXMXMXMXMXMXMXMXMXMXMXMXMXMXMXMXMXMXMXMXMXMXMXMXMXMXMXMXMXMXMXMXMXMXMXMXMXMXMX",
"MXMXMXMXMXMXMXMXMXMXMXMXMXMXMXMXMXMXMXMXMXMXMXMXMXMXMXMXMXMXMXMXMXMXMXMXMXMXMXMXMXMXMXMXMXMXMXMXMXMXMXMXMXMXMXMXMXMXMXMXMXMXMXMX",
"MXMXMXMXMXMXMXMXMXMXMXMXMXMXMXMXMXMXMXMXMXMXMXMXMXMXMXMXMXMXMXMXMXMXMXMXMXMXMXMXMXMXMXMXMXMXMXMXMXMXMXMXMXMXMXMXMXMXMXMXMXMXMXMX"
};
