/* XPM */
static char *ea3bc82e39c04f3fa3613023b3105a1f03ZWNAjLwbSaUQTh[] = {
/* columns rows colors chars-per-pixel */
"64 64 101 2 ",
"   c #656565",
".  c #77716E",
"X  c #78726F",
"o  c #6F6F70",
"O  c #6E7071",
"+  c #747575",
"@  c #7B7573",
"#  c #7F7977",
"$  c #777879",
"%  c #797A7A",
"&  c #923F0A",
"*  c #83271B",
"=  c #87321C",
"-  c #8A371D",
";  c #8C3A1D",
":  c #8F3F20",
">  c #93410C",
",  c #9A4C0C",
"<  c #954313",
"1  c #93431D",
"2  c #9C4F1E",
"3  c #A35100",
"4  c #A45210",
"5  c #A65816",
"6  c #A55418",
"7  c #A75A1F",
"8  c #AF640E",
"9  c #AF6511",
"0  c #AF661C",
"q  c #B06616",
"w  c #B0661A",
"e  c #B1681F",
"r  c #8D472C",
"t  c #8E492C",
"y  c #914625",
"u  c #934927",
"i  c #9D4D21",
"p  c #924D2C",
"a  c #9D5326",
"s  c #97502C",
"d  c #9C542A",
"f  c #9E582C",
"g  c #96533C",
"h  c #A54C22",
"j  c #A84F22",
"k  c #A45623",
"l  c #AA5523",
"z  c #A75923",
"x  c #AA5B22",
"c  c #A15728",
"v  c #A45C29",
"b  c #B05F23",
"n  c #A75F35",
"m  c #AD5D37",
"M  c #AE6225",
"N  c #AE6A23",
"B  c #A4612B",
"V  c #AA6229",
"C  c #B16123",
"Z  c #B66A25",
"A  c #B86C24",
"S  c #B3662D",
"D  c #B36A29",
"F  c #B67225",
"G  c #BB7325",
"H  c #BE7A25",
"J  c #B67028",
"K  c #BD7728",
"L  c #A5613C",
"P  c #A9623C",
"I  c #B06232",
"U  c #C07C26",
"Y  c #995741",
"T  c #A76241",
"R  c #AC6E4F",
"E  c #827C7A",
"W  c #C58426",
"Q  c #C78826",
"!  c #C98927",
"~  c #CC8C28",
"^  c #CF9029",
"/  c #85807F",
"(  c #858280",
")  c #898381",
"_  c #8C8A8A",
"`  c #969797",
"'  c #969798",
"]  c #9B9C9C",
"[  c #9FA0A0",
"{  c #A2A3A4",
"}  c #A6A7A8",
"|  c #A7A9A9",
" . c #ABACAC",
".. c #AEAFB0",
"X. c #AFB0B1",
"o. c #B1B1B2",
"O. c #BFBCBC",
"+. c #C0BDBD",
"@. c #C6C3C3",
"#. c #CAC7C6",
"$. c #CBCBCB",
/* pixels */
"] ] ' ] ] ] ] ] ` ] ] ] ] [ { { { { { [ [ ] [ { { } { { } { { [ ] ] ] { { { { { } } { { [ [ [ [ [ { { { { } {  .| |  .}  ... .  ",
"{ ) # E E E E E / E ( ) ) ) ) ) ) ) / ) ) ) ) / / ) ) ) ) ) ) / ) ) / ) / ) ) ) ) ) / / / / ) / / / / / / / / ) / / ) ) E _ #.o ",
"' @ , x w e e e e w w w w q w q q w q w w 0 0 q q q q q q w q q w w w w w q q w q w q w w w w e w w w w 0 0 0 0 w q q 0 3 L @.o ",
"] @ 5 M C Z Z Z Z Z C Z C Z Z C Z Z C Z Z Z Z C Z Z Z A Z Z C Z Z Z C Z Z Z Z Z Z Z C A Z Z Z C C Z A A e Z Z Z A A Z Z 4 T @.O ",
"{ # 0 C z z z z z z z z x z z z z l z z z l z z z z l z z z z z z z z z k l z z l z z z z l z z z z z z z l k z z z z z & Y @.+ ",
"| # 9 Z z z l 7 z k 7 k z z z z 7 z z x z x 7 z z z z 7 z z x z x z z 7 z z z z 7 x z z z x z x z x z k 7 Z x k z z x z & Y @.+ ",
" .# 9 Z z z z z x 2 ; ; ; k z z x z l x z z l z z 7 z x x x z l z 7 z x 7 z 7 z z z z 7 z 7 z 7 x x k * N ^ N = k z k z & Y @.+ ",
" .# 9 Z 7 z 7 k 2 x N N N C C 7 z 7 z z 7 x x 7 z z x z 7 z z 7 b x x x z l l x x x b x z z z x l 2 k N F U Z 6 k a z z & Y @.+ ",
"| # 9 Z z z x 2 * D ~ Q ~ U Z l z z z z z 7 z z 7 z z 7 z z z z b C C b z l h l Z b C x z z z z k - k ~ H C A G d p z z > Y @.+ ",
"| @ 0 Z z z 2 V N H Q U U x v x 7 x b 7 x b 7 b x b x x x z b x b b C x l z M z c x C x x x x b k 2 x U G A M v d p c z > g @.+ ",
"} @ 9 Z z 6 = N ~ Q Q F Z d p C C b b C C C b C C b b C x z C C b C C b h Z G V t x C C C b b C x l z A Z F v t p p k z & g @.+ ",
"} @ 0 Z z k 1 x G F F V d k k b C b C b C C C b b C C b b b C C C b C b x z f d p x C C C b C C b 7 x d f k d p a z z z > g @.+ ",
" .@ q Z z k ; z A Z A d t c z C b C b C C b C b C C C C S C b C b b C b C k t p p x C b C b C b b C x p p p p p z z z z > g @.+ ",
" .@ 9 Z z 7 6 z x M x z k x M C C C C b b C b C b C l l j l C Z C Z Z C C x x x x x C C b C b C C b M x x x z k z z x z & g @.+ ",
" .# 9 Z l z 7 z 7 z z 7 x x e b C C C b C b b b b b 7 l j j Z J Z Z A Z C C C C C C C C C C C b b C b C C C b 7 z z 7 x > g @.+ ",
"..@ 9 Z l x x x C C b b b b b b C C x C b C b b b l U W U A s s Z Z Z Z Z Z Z Z A A Z C x C C C C b C b C C x z z z z z > g @.+ ",
"..# 9 Z k z z x C C b b C b C b C M b C C C x C b l U U U A s s Z Z Z Z Z Z Z Z Z Z Z C b C b C b C x C C C x z z z x z & Y @.+ ",
"..# 9 Z z z z x C b C C b C C b C x C Z Z Z C l J ! U U v s s s Z Z Z Z Z Z A C l l b x x b C C C b C C C x C C 7 z z z & Y @.+ ",
"..# 9 Z 7 z 7 x x b x b C C b C C C Z Z Z A Z x J W J S c s c v Z Z A S Z Z C Z C Z C S b b C C C C C C b C b C x z x x & Y @.+ ",
"..# 9 C z z x x 7 l j b C b C Z A A Z Z Z Z Z A J G c t p s I A Z Z Z A A C j G ! ! ! U A x x A Z b b C C b C b x x 7 x & Y +.+ ",
"..# 9 Z z x l l k k l b C b b Z Z Z A Z Z Z Z Z S U j c c c Z Z Z Z Z Z C Z C K ! U W K A C C C C C C C b C C C z k z z & g @.+ ",
" .@ 9 Z z 7 z 2 ; 2 z x C b C Z Z Z Z Z Z Z Z Z U Z Z Z Z Z Z Z Z Z A C l K ~ ! ! G A G G K K C b C C C C b C C x z x z & g @.+ ",
"..# 9 Z 7 z x 7 2 l x b 7 C C Z Z Z Z Z Z Z Z Z Z Z Z Z Z Z Z Z Z Z A Z l A U U U K G G A V n c z C b C b C x C x z z x & Y @.+ ",
" .# 9 Z l z z z z b C C C C C Z Z A Z Z Z Z Z Z Z Z Z Z Z Z A Z A Z A C x C G A G G G G G s p p d C x C C b C C x z z z & g @.+ ",
" .@ q Z z z 7 x x x C C C b C Z Z Z Z Z Z Z Z Z Z Z A Z Z Z Z Z Z Z Z Z S C G Z V V V V V s d v M C C b C C C x x z z z & Y @.+ ",
"..# 9 Z l x l x Z b b C b b C Z Z Z Z A Z Z Z Z Z Z Z Z Z Z Z Z Z Z Z Z Z Z A v p p p p t s d Z Z A Z b C C 7 z 7 z x x & Y @.+ ",
" .@ 9 Z z 7 x 7 b b C b b b b Z A Z Z Z Z A Z Z Z Z Z Z Z Z Z Z Z A Z Z Z Z A S S M Z S V S M S Z Z Z b C b x z x x 7 x & g @.+ ",
"..@ 0 Z z x z x b e b C b b b Z Z Z Z Z Z Z Z Z Z Z Z Z Z Z A Z Z Z Z Z Z Z Z Z A A C A A A A Z Z Z Z C b C x 7 z z z z & g @.+ ",
"X.# 9 Z k k z b b b C C b C Z Z Z Z Z Z Z Z Z Z Z A S A A S Z Z Z Z Z Z Z Z Z Z A Z Z Z Z Z Z Z Z A C l x b x z z z z z & Y @.+ ",
"X.# 9 Z l z x 7 b b b C C Z Z Z Z Z Z Z Z Z Z Z Z Z b U A A Z Z Z Z Z Z Z Z Z Z Z Z Z Z Z Z Z S Z Z C l x b b l z z z z & g @.+ ",
"X.# 9 Z z 7 z x C b C b b Z Z b l l b A Z Z Z Z Z Z Z Z Z Z Z Z Z Z A S l b b b Z Z Z Z Z Z Z A C b b G Z b b 7 7 x z z > g @.+ ",
"o.# 8 Z z z z x b C b C b Z Z x b b b Z Z Z Z Z Z Z Z Z Z A Z Z Z Z A C b x b C A Z Z Z Z Z Z A Z x C G A b x z x z z z > g @.+ ",
"X.E 8 Z z z x z x x b b b b b U W G Z b C A Z Z Z Z A Z Z A Z Z Z Z l C ! U Z Z Z Z Z Z Z Z Z Z Z Z Z A Z C C b z z z z & Y @.+ ",
"o.E 8 Z z 7 l z z x C b b x b W W G Z k x Z Z Z Z Z Z Z Z Z Z Z Z Z b Z W U J A Z Z Z Z Z Z Z Z Z Z Z Z C C b C x z x x & Y @.+ ",
"o.E 8 C 7 l 7 x z x b b b b x Q W K D r c A Z Z Z Z Z Z Z Z Z Z Z Z Z Z Z I m I Z A Z Z Z A Z Z Z Z Z Z C C b C x z 7 x & g @.+ ",
"o.# 8 Z z z z x 7 b b b b b b U H Z V p f A S A Z Z Z Z Z Z Z Z Z Z Z Z A Z I S Z Z Z Z Z Z Z Z Z Z Z Z C b C b x z z z & g @.+ ",
"o.# 8 C l z z z z x C C b Z Z l z p p t a A Z Z Z A Z Z Z Z A Z Z Z A Z Z Z Z Z Z Z Z Z A A Z Z Z Z Z b b b b C z z x z & g @.+ ",
"o.E 8 Z 7 z z 7 l l x C b Z Z b C v v v M Z Z Z Z Z Z Z Z Z Z Z Z Z Z Z Z Z Z A Z Z A Z Z A Z Z Z Z Z b b b C b x z z x > g @.+ ",
"o.# 8 Z z z 7 l h h h x b Z Z Z Z A Z A A Z Z S Z A Z Z Z Z Z Z Z Z Z Z A Z Z Z Z Z Z Z Z Z Z Z Z A A b b b b C x z z z > g @.+ ",
"o.# 8 Z z k 2 x A Z C C b Z Z Z Z Z Z Z Z Z Z A Z A A Z Z Z Z Z Z A Z Z Z Z Z Z Z Z Z A Z Z Z C S b b b b b C b x z z z > g @.+ ",
"o.E 8 Z k k = D ~ U G Z b Z Z Z Z Z Z Z Z A Z Z Z Z Z Z Z A Z Z Z Z Z Z Z Z Z Z Z Z Z Z A A S l l x x C C C C C x 7 z x & Y @.+ ",
"X.# 8 Z z k 1 a B c d x b Z Z Z Z Z Z Z Z Z Z Z Z Z Z Z C b b b Z Z Z Z Z Z Z Z A Z A b b b b U U A Z x C C x x z z z x > g @.+ ",
" .# 0 Z z 6 1 1 p p p x b Z A Z Z A Z Z Z Z Z Z Z Z Z A b l l l Z A Z A Z Z Z Z Z Z A b l l l ! U G A C C C x x z z x x & g @.+ ",
"| @ 9 Z z 7 a k v x x b b C C Z Z Z Z Z Z Z A Z Z Z b b G U H H b b Z Z Z A Z Z Z Z Z b b K U W W G D d x C x x 7 x z z > g @.+ ",
"} # q C z x z x C e b b b b b Z Z Z Z Z Z A A A Z Z b x H W W U l b Z Z A A Z Z Z Z Z b b W W W U G D t c C x z z z z z > g @.+ ",
"} @ q Z z z z x z x b C b b b Z Z Z Z Z Z Z Z A C x H U U W G G s c Z Z Z Z Z Z S b l U W W U U Z p s p z C x z x z x z & g @.+ ",
"{ @ q Z z z z x z x C b b b S Z Z Z Z Z Z Z Z Z C 7 H W W U G D p f Z Z Z A Z Z A b l U ! W W G N p p p z C x z z z z x > g @.+ ",
"{ X w Z 7 z 7 x b C b C b C b b b Z A Z Z Z Z A M 7 H Q H F d p p d Z Z Z Z Z Z A b l A G G G G S t d C C C C C 7 z z z > g @.+ ",
"{ X w Z 7 z z x b C C C C C b C b Z Z Z Z Z Z Z C x F H A N d f f v A Z Z Z Z Z Z C x A G D N Z V d k x b C b b z 7 l x & Y @.+ ",
"] X e C z z z 7 z x C C C b C x C b 7 b b A Z Z Z A a r p p A A Z A Z Z Z Z A Z A Z A G A p t t d C C C C C C C x z z v > g @.$ ",
"] . e Z 7 z z k 7 l x z b x C C b C b C C Z Z Z C Z c d a d C Z C Z A Z Z Z C Z Z C C A Z d a a c C C C C C b b z 6 z z > g @.$ ",
"[ . 0 Z z z x 2 - ; ; h j b C C C b C b b b b b C b C C C C C C C C A A A C b C C C C C x C C C C C x C C C x z 2 - k x > Y @.+ ",
"[ . 0 Z 7 k 2 z N e Z C b x x b b C b C b C b C C C C C b C C C C C Z C x C C C C b C b C b C b C C C C x x k 2 7 x 2 u > g @.+ ",
"[ X 0 Z k 7 ; N Q W ~ G Z x j C C C C b C b C C C C b C C b C x C C C x h l C C C C b C b C b C C C C C M x 2 ; N H 2 1 > g @.+ ",
"{ X e Z l 7 ; e W H U A Z c h x x b x b b C C C x x C C b C b C b b l x b x z x C C C x C b C C b b b b 7 i k 7 c v a u > g @.$ ",
"{ X q Z z k = D ~ H e A F f t z x z 7 C C b C C x z C C C b C b b b h x G n t v C C C C b C b C C C x z 2 - z G a t p s > g @.$ ",
"} X 0 Z z z 7 a 7 a f f f k k x x z x x x x x x x z x x x z x x x x x k f d p d x x x x x x x x 7 x x z k k a f s s a z > g @.$ ",
"} X q Z 7 z x 2 ; y t s u a 7 x z z z 7 z l z z z z z z z l z z z x z k t p p a l z z z z z z z z z z x z x a t p p z z > g @.+ ",
"| @ 0 C z z x k 7 a z a c z x z z z z z 7 z z x 7 z z z z z l v l x z z c k k z x z x l 7 z x z x z z z z z z k k c z z > Y @.$ ",
"| @ 0 Z z z z k z x x x x z x k x z z z z z z z z z z x z x z z z z z z x x z z x v l v z z z z z z x z z z z x x z z v > Y @.+ ",
" .# 3 5 > > > > > > < > > > > > > > < & < > > > < > > > & & < & & & < < < & & & & & : & & & & & > > > > > > > & > > > < 3 P @.+ ",
" ./ f L g g g g g g g g g g g g g g g g g g g g g g g g g g g g g g g g g g g Y g g g s Y g g g g g g g g g g g g g g g L R @.+ ",
"X.$.@.@.@.+.+.+.O.O.+.+.+.+.O.O.+.+.+.+.O.+.+.+.+.+.+.+.+.+.+.+.O.O.+.+.+.+.O.O.+.+.+.+.+.+.+.+.+.+.+.+.+.+.+.+.+.+.+.+.+.+.@.$ ",
"% / / / % % % % % % % / % % % % % $ $ $ $ $ % $ $ # $ $ % $ % $ % $ % $ $ $ $ $ % % $ $ $ $ % % % % % % % % $ $ $ $ $ $ $ $ +   "
};
