/* XPM */
static char *_1905_3a7d3c53fb6d7cfbe4531c571e33797cb86f953abed5bb9de0c97ef5869a2c87[] = {
/* columns rows colors chars-per-pixel */
"50 64 105 2 ",
"   c #010000",
".  c #0A0504",
"X  c #0E0805",
"o  c #0D060A",
"O  c #100606",
"+  c #130905",
"@  c #1A0B06",
"#  c #130909",
"$  c #1C0D0C",
"%  c #1F100F",
"&  c #1F1111",
"*  c #220E05",
"=  c #220F0E",
"-  c #281300",
";  c #2C1907",
":  c #21110F",
">  c #2D1909",
",  c #301704",
"<  c #3D1E05",
"1  c #251412",
"2  c #2A1514",
"3  c #2D1817",
"4  c #2B1A19",
"5  c #311917",
"6  c #341C1A",
"7  c #391E1C",
"8  c #3C230B",
"9  c #36211F",
"0  c #3B211E",
"q  c #2F2120",
"w  c #342222",
"e  c #3D2422",
"r  c #3D2927",
"t  c #3A2628",
"y  c #452307",
"u  c #42240A",
"i  c #582F09",
"p  c #5F3605",
"a  c #55310F",
"s  c #5C350F",
"d  c #41221F",
"f  c #5D3611",
"g  c #61380B",
"h  c #6D3C0D",
"j  c #643A12",
"k  c #6B3D11",
"l  c #442523",
"z  c #482724",
"x  c #462826",
"c  c #4A2A26",
"v  c #472E2C",
"b  c #4C2C29",
"n  c #522F2B",
"m  c #4B312F",
"M  c #56312D",
"N  c #59322F",
"B  c #4D3331",
"V  c #533431",
"C  c #5C3531",
"Z  c #563936",
"A  c #5B3936",
"S  c #573B39",
"D  c #5A3C3A",
"F  c #613733",
"G  c #633A36",
"H  c #653D39",
"J  c #693F3B",
"K  c #744413",
"L  c #7C4713",
"P  c #7E4A16",
"I  c #5F403E",
"U  c #63403E",
"Y  c #6A413D",
"T  c #654341",
"R  c #6C4542",
"E  c #6D4946",
"W  c #6E4B48",
"Q  c #704541",
"!  c #724A47",
"~  c #724C49",
"^  c #77514E",
"/  c #7A514E",
"(  c #80460F",
")  c #834C16",
"_  c #8A4E13",
"`  c #8D5117",
"'  c #945516",
"]  c #995717",
"[  c #9A5817",
"{  c #955618",
"}  c #9D5A19",
"|  c #A35C16",
" . c #A55E18",
".. c #A85F18",
"X. c #AB6117",
"o. c #AD6218",
"O. c #B26417",
"+. c #B36519",
"@. c #B6691C",
"#. c #BC6A19",
"$. c #C06D19",
"%. c #C7701C",
"&. c #CA721C",
"*. c white",
"=. c None",
/* pixels */
"=.=.=.=.=.=.=.=.=.=.=.=.=.=.$ . . o # X O #   X =.=.=.=.=.=.=.=.=.=.=.=.=.=.=.=.=.=.=.=.=.=.=.=.=.=.",
"=.=.=.=.=.=.=.=.=.=.=.=.H G C l 5 C C M M C 2 b x   X =.=.=.=.=.=.=.=.=.=.=.=.=.=.=.=.=.=.=.=.=.=.=.",
"=.=.=.=.=.=.=.=.=.=.    N ! R l 6 G C G W J 2 b F N v   X =.=.=.=.=.=.=.=.=.=.=.=.=.=.=.=.=.=.=.=.=.",
"=.=.=.=.=.=.=.=.    b T l R ! d 5 Y ! H ~ Y 2 n J N 0 n c     =.=.=.=.=.=.=.=.=.=.=.=.=.=.=.=.=.=.=.",
"=.=.=.=.=.=.=.  1 U G R V b b 4 = v V l B x $ 6 l l n Y R n     =.=.=.=.=.=.=.=.=.=.=.=.=.=.=.=.=.=.",
"=.=.=.=.=.=.= l v S F F n 1                       2 M J T x x S q =.=.=.=.=.=.=.=.P =.=.) =.=.=.=.=.",
"=.=.=.=.=.: C R F 0 c n :   .       .     .     X   1 n z l G ! V O =.=.=.=.=.=.)  . . .} ) =.=.=.=.",
"=.=.=.=.1 l H R n M #                                   : n n F N n t =.> f ) ] ) +.#.$.} P ) =.=.=.",
"=.=.=.w F n 7 b                                               n $ S A - j ) ] +._ o.#.#.| ) ' { ) =.",
"=.=.$ D Y N b                                                   X + h ` ) ` #.@.) +.#.$.} { $...P ) ",
"=.. M x & $ O                                                 .   f  .#.| ` #.+.) +.@.$.} { $.O.P ) ",
"=.  N F C x                                                   .   j X.$. .` #.@.) o.#.#.{ { $...P P ",
"=.o M W R z   .                                               .   j  .$. .` @.@.) @.#.#.] ] $.O.P P ",
"=.. : S Y c                                                       j  .$. .` $.+._ +.#.#.] ] $...P ) ",
"=.  z d 5 1                                                   .   j  .$. .` $.+.) o.#.#.] ] $.O.P ) ",
"=.  C n l 6                                                       j  .$. .` $.+.) @.#.#.] ] $...P P ",
"=.. M R Q b   .                                               .   j ..$...` #.O.) o.#.#.[ [ #.o.P ) ",
"=.. l D S 6                                                   .   g ..$...` #.@.) o.#.#.[ [ $.o.P P ",
"=.  t 6 2 1                                                       a | $.| ` #.@.` +.#.#.[ [ #.o.P ) ",
"=.. R E G b                                                     #   L #...` #.+.) o.#.#.] { %.o.P P ",
"=.. n W R z                                                       #   P X.) #.@.) +.#.#.] ] #.o.P P ",
"=.  M G G z   .                                                   . @ < s { #.@.` +.#.#.] [ #.o.P ) ",
"=.  C l # $                                                     #   ) #.[ ) #.#.) o.#.#.] { #.o.P P ",
"=.o $ D H 7                                                       a | $.X.` #.@.) +.#.#.[ [ %.X.P P ",
"=.. l H ! S                                                   .   j  .$. .` #.@.) +.#.#.} ] %.X.P P ",
"=.. C G J M   .                                                   j  .$. .` #.+.) +.#.#.] ] #.o.P ) ",
"=.  0 e N b   .                                               .   j  .#...` #.+.) +.#.#.] ] #.X.P ) ",
"=.. 6 m m 7                                                       j  .$. .` $.+.) +.#.#.] ] %.X.P P ",
"=.. M ! S $                                                   .   j  .$. .` $.+.) +.@.#.} { $.o.P P ",
"=.. C G G b                                                   .   j  .$. .` $.+.) @.#.#.] } $.o.P ) ",
"=.. b V F b   .                                               .   j  .$...` #.+.) @.#.#.] ] $.o.P ) ",
"=.  & o b z                                                       j | $. .` $.+.) o.#.#.} ] #.o.P P ",
"=.. n G l   .                                                     j  .$. .` $.@._ O.@.#.{ ] $.O.P P ",
"=.. M H C l                                                   .   j  .$. .` @.+.) O.$.( . _ $...P ) ",
"=.. C G H b   .                                               .   j  .$. .` @.@.) O.$...h O _ O.P P ",
"=.  5 7 6 2                                                   .   j  .$. .` $.@.) O.#.%._ i O.O.P ) ",
"=.  l v c 7                                                       j  .$. .` $.+.) +.%.] , _ &...P ) ",
"=.. C G G b                                                   .   j  .$. .` $.+.) +.[ ) h k | O.P P ",
"=.. A J H b                                                       j  .$. .` $.+.) +.y ] @.8 h O.L P ",
"=.  W H b e                                                   .   j  .$. ._ $.+._ +.( _ _ s ' +.P P ",
"=.  H m $ &                                                       a  .$. .` #.+.) @.$._   _ $.o.P P ",
"=.. # n H z   .                                                 #   ) $...` #.+.) +.#.#.] ] $.O.P ) ",
"=.. V F G v                                                       #   ) .._ $.+._ o.#.#.] ] $.o.P ) ",
"=.. V A Q S   .                                                   . # < f ' $.+.) o.#.#.} { $.o.P P ",
"=.  2 @ T D   .                                                 #   ) o.] ` #.+.) @.#.#.] ] $.o.P P ",
"=.. z N v 4                                                       a | %...` $.+.) +.#.#.] ] $.o.P ) ",
"=.. N H n 7                                                   .   j  .$. .` #.+.) +.#.#.] ] $.o.P ) ",
"=.. N Q Q b   .         .   .     . . . .         .   . .         j  .$. .` #.+.) @.#.#.] ] $...P P ",
"=.. e Z V 2                                   .               .   j  .$...` $.+._ o.#.#.] ] #.o.P ) ",
"=.  3 3 6 1   . .     6 e 7 7 6 e v m B v 0 $   3 l 0 e v 0 X     j  .$.| ` #.+._ +.#.#.] ] $.o.P P ",
"=.  C H H b         e F H G J Y ! / ~ ~ ^ T l 2 x M N Y / F : 3 o j  .$.| ' #.+.) +.#.#.] ] $.o.P ) ",
"=.. b F H z X 5 1 5 n M V M H W E Y M G ~ ^ R H c 1 e G R C 1 A q g  .$.| ` #.@.) +.#.#.] ] $.o.P P ",
"=.. 4 b G e 6 G H C w 1 2 2 2 2 3 2 6 N C R ~ H N C c   e M 2 E t g  .$.} ` #.+.) +.@.#.] ] $.o.P P ",
"=.  T V $ # 6 J ~ G ! G C F C C C F V 2 1 4 4 2 1 2 $ 6 M $ o Z 4 g  .$.X.` #.@.) @.#.#.] ] $.o.P ) ",
"=.. Z F V l 6 G G C H G ~ Y R E F G F N V V V V N C C M 1   . &   j  .$.| ` #.@.) +.#.#.] ] $.o.P P ",
"=.. T R H b O 5 3 3 2 2 e 5 9 9 2 5 5 6 6 6 6 6 6 5 5 2     . .   k _ ..X.` #.@.) +.#.#.] ] $.o.P P ",
"=.  r e 6 1                                             . .   .   8 8 K ` ` #.@._ @.@.#.] ] $.o.P P ",
"=.=.=.=.=.=.=.=.=.=.=.=.=.=.=.=.=.=.=.=.=.=.=.=.=.=.=.=.=.=.=.=.=.=.=.2 k ` | +.) O.@.$.] ] $.o.P ) ",
"=.=.=.=.=.=.=.=.=.=.=.=.=.=.=.=.=.=.=.=.=.=.=.=.=.=.=.=.=.=.=.=.=.=.=.=.u f k | ` O.@.#.] ] $.o.P ) ",
"=.=.=.=.=.=.=.=.=.=.=.=.=.=.=.=.=.=.=.=.=.=.=.=.=.=.=.=.=.=.=.=.=.=.=.=.=.  @ f k +.$.#.] ] $.o.P P ",
"=.=.=.=.=.=.=.=.=.=.=.=.=.=.=.=.=.=.=.=.=.=.=.=.=.=.=.=.=.=.=.=.=.=.=.=.=.=.X     ' | X.{ ] $.o.P P ",
"=.=.=.=.=.=.=.=.=.=.=.=.=.=.=.=.=.=.=.=.=.=.=.=.=.=.=.=.=.=.=.=.=.=.=.=.=.=.=.=.=..   s K ' @.X.) ) ",
"=.=.=.=.=.=.=.=.=.=.=.=.=.=.=.=.=.=.=.=.=.=.=.=.=.=.=.=.=.=.=.=.=.=.*.*.=.=.=.=.=.=.=.*   a K K K L ",
"=.=.=.=.=.=.=.=.=.=.=.=.=.=.=.=.=.=.=.=.=.=.=.=.=.=.=.=.=.=.=.=.=.=.=.=.=.=.=.=.=.=.=.=.=.=.@ @ $ # "
};
