/* XPM */
static char *_1306_9f42bb465aeaa8496851eaccda5f13824113e12d336e35d04e48ef8dfda60d54[] = {
/* columns rows colors chars-per-pixel */
"114 84 76 1 ",
"  c #14154B",
". c #1A1B4E",
"X c #161750",
"o c #171851",
"O c #1D1D55",
"+ c #1F1E58",
"@ c #211E54",
"# c #201F58",
"$ c #1E2156",
"% c #1F2058",
"& c #212256",
"* c #24255C",
"= c #29265B",
"- c #26285E",
"; c #29295E",
": c #262760",
"> c #282760",
", c #272961",
"< c #2C2C64",
"1 c #2E2F68",
"2 c #312E65",
"3 c #302F68",
"4 c #2E3066",
"5 c #2F3169",
"6 c #313166",
"7 c #33346C",
"8 c #39366D",
"9 c #36396E",
"0 c #39396E",
"q c #353771",
"w c #383770",
"e c #363971",
"r c #3B3C74",
"t c #363C78",
"y c #3D3F79",
"u c #403D74",
"i c #403F78",
"p c #374176",
"a c #3D4076",
"s c #3E4179",
"d c #414277",
"f c #43447C",
"g c #49467D",
"h c #45487E",
"j c #48497F",
"k c #3F4482",
"l c #3F4883",
"z c #444681",
"x c #484780",
"c c #464981",
"v c #4A4C84",
"b c #454B89",
"n c #4C4E89",
"m c #504F89",
"M c #475087",
"N c #4D5087",
"B c #475089",
"V c #4E518A",
"C c #4F588F",
"Z c #535087",
"A c #52548C",
"S c #55588E",
"D c #58598F",
"F c #4D5392",
"G c #535692",
"H c #565993",
"J c #595B93",
"K c #555B9A",
"L c #5A5E9A",
"P c #5D619C",
"I c #606197",
"U c #63649C",
"Y c #5D62A2",
"T c #6267A5",
"R c #6768A1",
"E c #696AA2",
/* pixels */
"5pMCKFBFKYYTYYYYKFkqyFHGFbFGYTYKnbNGVpepMHGBKYYKFVnbFFmmr7ynFGVBFKPYPPPPKCCspplKKBFFFKYYKFbbFbpqpMLJKLLYYKFvnnFbGY",
"5pMBFbkkFFFKFFGGnbt1tbFbbzbbFFFnzkzbze5phCNbBKKFBbbbbzfkq3ybVFblllCCCCKCCClp5eBCBbllFFKFbbkbbzt5tbCNbnGGGFzkbzzknH",
"9plMltqtykkkkkzzktq1qzzzktykzbzkqqqyp5,epMbppkbbzytyiytw>:qzBbpttpkspllllzp5,qznbpttllllkqqyzsq,qzcsqtzbxkytyyyqin",
"ephhlt11qq1113qwqq1<5kzkqq7q1qqqq13qp5,7pzse7qqqqqqqwq33::5kcpq,<555557qtte,:5fcseqqqttt51<7tw1*5aze117qqqqqqqq3wf",
"9efhhe1<q3>::113551,7hvdq11>1117757775,eszs9<<,417777q33,*7hvh5,<5<,,,,16954<5yhp9551,1161-<77<>7adr7<<1><3qq711rg",
"9eshh944q3<>>1qwqq,,qzncq1>11>177757q51pfcs6<<4-177q7qw7<<9hvs5<5qq51,>1e77657dvcp5,,1,,767<876<9fvd77<<>2quw733dm",
"99pfs4;<q773233q77<<7fvf72>11111714754,eadp4-<4;17773233<;8avp1:<q775,:17e74<7acs944451,<7864<<<7djr7<<213qww12<av",
"779a9-$*1332>>>>15<*<ede1>>11><>*>,1,%%5994*$-4211751:><=*4rdt,%*<77<,:1771*$,rda4%,,,,:*<<<-=::<rr8*&*>33333>##8d",
"e655<$OO#<6<-&*-1,*%*4654****,,***+*,*:,15,*$*;;,1<:::***,,77<*+o*:,,,:*,1**%:775,%-,4,,$$--#>:#>23>#O#*>12>1:+o6i",
"ht9754<,=><46<<<77457epe941,>,5671<5q77q7q7,;;--<7q33717777721,1,**1771<1777777qe744,<4944442wq13772><<,><333313in",
"Azrepar7157ydyyrazhzcccfspe4<eafyyryzvvzyarar844qdfyizzxnvdyw8edy7<qdhyrwrdvccfdbcpe<,9dzdepzvnxfirriiy717iiifzzAL",
"PAcfvNca77yvnxhhnAHKHGHSVvs97fnAvczvAJJAzsfcva66inAzvAHHJJAnvhcvz77iAAvizcNHJJJKAAVf75aVAvhhvAHJnvhfvnh6wzmFvnAAJE",
"SVcffcfyqqdVAvdifvNVVNVVVnf97hmAzffzvAnnffdcvw64hAAvhvAHnvvchfdha75hDAcyyfcNNMNASAbp55sMAvhhxvVHvziyfcd<ednVvvnnAU",
"carewyyr11rvnfq3epreeefaap7<2rvvfyrryyyyee7ra74<yvniqerayrwryyiy7<<dZnae7eyaepraffp5,1ehhyyyywrfirq77rq17yzfqqtrhA",
"7<**,<<1*<7dfw<:,4,%&*4777,,<rhfw31<:>,<1<5784<;0fd71111,:*:<<775-;0jde5-1<<**:1755,,5pcd7777<,7q713777,5ast51<16f",
"r4*17q77,1wvhy77ee5*%-7ww7<<7yffi777,<<75997864;wfdw7<111<<<<7706<<0jfe7694;,,57eee5,5pbnr271,,<137qwe5,<rfyq1::9g",
"d9--7877<3ijf85<7774<679777<1yzfw332<2<72qw3q223ijiw31>133,-,77w7<7rzhe5177644445qq5<<yvmr2<<3<323w3wq2:3ixiw1:,rx",
"d6&&<87<><rfy2*%-6976<<<777<<qsfw>><;<<622121>:<yfi7<>><<<-**<6w<,<wdy5:*<7944*-<151,<rcfw<><<3<3322<21#1izi3*#*wv",
"0;..>13>#*786*+XO*77<***:11*+1ee3##=<<>,>:#>>###3w7*o+##*;*&%,45,*=7w7*X O-14-**:<1<*:<w82*#*>,<>>>##>##>3w3>#O+0h",
"02&&>>>>**,<<***%,<5<:**:><::<q72*#=<>**:>>>1<:>37<*+******;<,,:,,<384:+%-,;,--,:<<<:%,42<>>#>,*#:>>><<#>132>#+#8d",
"9690w77r0wrrwyddrq1,17qeq7qwryirw7qq77<<3wrwyyriiw77qqw75,17p955qwyifiiiaaq1-19eq75twrrrqq78764:*7wwwriwwww8ww3w0f",
"60gvvffvnmAAZAHAAzq<7fnnxffvmAmvzizzdeqwinmvvnAAvfiizzxie45avcfsfvAAAmAGVVf7,7fvckshvAVVxfzxjdw5whmvxnmmmmzixvxifN",
"6pvSAcfvnAAAAASSAvr17nHAvzxvAGAvhdvvf97acAnvvnmHmzzccvxk949vGVbfznGAnmGGHGxw5tvCAvhhmAmmvfixvj06yvGvxvAHAmxixxiijZ",
"4pvNviqydhjhfvvvzzq17xAnfyifzvvfp7ahp54ecvhyizzncfikiiyw,19bANzrwfxffzxcbcfq57zNvfrpfvnxzrwrgd9<wvmxyivmmviriirwdv",
"p9adhp;4494446tetq1,qzzfqq777rrq1<7r7*<qffr77wwwwwww7775*-9hNhw56732<2qttr7<17ivdw7q77wy7337r8<;7ahd77qrywww87329g",
"p6pda9444;-$*<45q31,5ffrq11,:<111<3w7<,1yi06<6<<><771<75%*6ahd6,;;<*#*<3376,,7djae7<,:,4322277<;3yza7<<<><1377320f",
"09ahap49744--;49qq1,wzhyr71<>:<1773782<7djf7<<<1<2777376<;7fvd6<6796<>33wq746rjvhr73,,<73w3886667dva7,,,>17ww7220f",
"0pphp9-;46944470q1<,7dxhr1133<>138776<<8igi7,<<237w87366<;9dhr4,2766<><27w8<<0fhi721775<238362<<edvy<><7<<7ww7<,0g",
"999p0;&$;474--;451*%,eyy1*=13<>:;6<****6rd0,#><372734,*,-&;0r7;&-<88<=,,132:*<0ae1*,<4,**><<,>**<wy6**:<73777<=*8f",
"6466;&&&*44;*&*-1,**,575:*#><<>#*=&$&**;66;@+#*><<<<4;****;46<&$$*;<;***><<*&*476-%*,,***=::>=**-46,%+*,>>,***OO60",
"pd944;46-;444;;25555799771,>><226;;<6977077<1<<,<33355696444544,<-;4861<1277<169r5,,,*11<2<<377<76974<,*:<676666dN",
"jjp0ppp0447sfppakzcccvvhfyr3<wifa0edjjjgduryyw3<qffifhjjMjfarpasw549ffdwyyhnvcvvncsp547rffywixxzfddddr7,1wfardhfAD",
"UDjhhvvy08dmAvhjxGGGGGGGmmz77inAnhcvVAHAvhfzviq1ynHvvVSSJHAjhhMcse6sVVnffvmADDJJDJmzq1rvGvffvGHHHvzvvfrqwdnnvvAAIE",
"Jnddxvzw77fAAnaavmGmmmZGmvi77fADnhazVHAvhfyffy71fVAzhMSSSAMhhcchp9esVAzfyfvAAAnnnAvfq1fVAvfzvVAAAfyfzzr1qhAAvvvVDU",
"jy7qyiy7<<ynAf64wkkw3uiiirq<<invdwqwdfy7ww7qr711azhq7eaaaeeeeppp544avvy77eriyrrryftq<<yvbfryyyyfaq17yyq<1yvvy7erxm",
"w6*,<777<,7hh0;-131:#>3733<>1rfi75171<,=<77771<1rfr715<,****<1444,,thf71,<=**#:3371>:<rsse577<<11<<17q7:,wiy7<,17y",
"i6*=<3q7<5whja4611<>:>17ww733ixfw733<,<<77757549yzfe661,<;<<66eeq,<rvct3773<==277q5,<5ybfe511>><1373wq7>3rffe4,1rf",
"f8*,77w747yvja6pqqq3117www717yxxiw32337w771775,5fzft6544<<<;147eq<1tcxy31777<<<33re5,1sccpq11<117qqw78<=1yxfe4,1wz",
"a6$*677<*,0dd6-;11131>>1712>;8idy2#:,<3751-<51%4rpy5,**4;<-**157<:,qiy1##<376;;><774*,ezhe<<<<<,3<<><<**<0yw5%$-8h",
"6&.&<4<*O&77p& .#><1>##*3<<*&<003*O+**>>,*O%1*$-5e9,%%%,--*++,<<,*,7w3#oO*236;*##155%%5re5*%*>,**==#&*&*<776;$.$7f",
"0;=-;;;;&-;94&.&>>,,,::*<<-;-<<4>**>1*%*,,***;*-<,,:***4<&&-,;;,:**<5<##*=<;****::,,**469,%-,4,**<;;---;;<4;-$$*8d",
"p66ap69paafddppatw5,57eeeeewrfgryqwyw7*<wypeassfp77559pr4<<9yr78qrysfkkiyy87<<7ew7qrwysst759ee51<8r000raae999977dj",
"60dZvaahMNVNjSSSmz7<7hNbzsfvZANhxfzvf7<9fvvchVVClpaaphvf66ehvvfafnAmnAmmmvf720hvzaacnAAncspffae56fvMhvNAAvayfhhsgV",
"6djDAhfcjASAjDSSHvq1eMHVcfzvVSAvxfhxd77eNSSvMSDPBBvfdcvd64evAVcaxHJDHAJKmmh06ynAnzfcAHHmvcsfzke5ecVVvNASAnhfhhhshS",
"7yvmnhrrsMMMchvVnzq<evHVsyyfxcvxrrddr740hvhaafchcbhaifir<,qzNvdetzxzzfznmvf75ecVvfyazvnvfarqsy55ycVcffcvvzfiyiiydN",
"wriffe7,4774449pww<,7fvfeq7777832<7787<8afa659e7er77wr7<**7fnhw51373117trrq<,5scfe755qqw7513ee5*efzr77773qqq73339f",
"wwyfdq<,,;-%%*147<,:5dfa711>>>><<,2676;60a8;;;;*<175333>*:7dcd71,1>#+O+>1<<::5acyq5,,:,<<1<<q7<*6afe<-,,=>3333228f",
"wriff71174<*,57777<<7hbfq3>>><28w22876<0fjg94;;;,1qe37r71<7ffa6<13q>::17q7175efcar75<,,<3q77q71,7zva711,>13www33rx",
"rrdgi7;<68444447q71,qcvzw3,<2w88788222;8gjd6<,4617776777-,7fj04-57e77<577e755ecMpp,5544,4677773<efva1*:<1788082;ux",
"880r9;*&;444*$*45<**5rfr1,><2<>>;22;=&=<0e8;&*;<<5171*,<**6ea8,%*,55<,*,<7<:%4ppp,*,,<,*-,<:*>,:5ra7:+*><2266;=@8g",
"626<:+Oo%*,-$$$%,,%$*57<##*<=#++@=**O.&;64-OOO*;::,,%oO$+*-45*+O***>**+**:,*$%56,%$%%%*****+#***,<7:o++::,<;*#Oo<w",
"d9761,<,,<4754<55e5457q71<1<<,<32<22667966;-****<77711<866661,,,1<,,571,<77755ee5,,4,4451<1<<7775q7<<11>><7662<2ux",
"Svdaryyr470fppppszbvzfzxvfr71rzxdyydvvvvdywriw7<effyiznvVvharerar7<7dhdywyfnNvvvllsp65eddyyydzvxzkyttiw3<8ffffxxmL",
"IAvvccca47fNBbzfznSHHnAHHmi71ynAvdivADDZchfvmf07fVnzvAHAHANvccccr11ynAnddhvJJAAACCBs55fNnvhfnAAAnvzszcy37inAvvAAJR",
"Dvjhcvcp47fABcsppcVnnmAmmvy31fVVcaacvAAvdyahjy73zAAhfnNAAjjhhjvzr73fADnyrfznnnZVZnNa77fAANhfvNVAvfaazzy37hAmhhvnJU",
"jr09wfa5,4aMbst5qrywrdfiyy7<1ycvsrrrrryyq07ry7,<yvhwqwyda007wryyq13ivnd71ryw7wdaydy9<4ejvfewadateqqqyyq11rxfwwrrvA",
"09;;7e74,40ahp4457<,:,7w777<<efht99754577<7773<<yff74<4<<--466707<<rvzy6,47<**<97774,<ejga66974413q77q3>,rgi8<>3wx",
"a9;;5775-40fsp4<77<,*:33w83<6yhfr644,,15743772<7rffw<4<<;&*;2;45644rhdw<<55<:,<7777<;<9gf04<<<<;<33qqq1#<rxfw>:<qf",
"d6-*<886<<9hce447w77<>13w86;4ajje6<<;;<486807<20igfw1<66<;*=;6996<4ahd7477686<268w04;4afha4;--441333332>2ixgw<#>rx",
"d6$$;896--7fd5**<17qq<11776*;0ff9<;;<<4466462>-<uff7:=<66;=&;;79;-<0dw4*-<70762,2704;40she<;<444222331>><rji8>##8z",
"0;..;44;**;87%XX*,,<<,**><>**4e0;***;---;-*;*$+&797,+O*<;--&&-<6-**<86&oO&;41,*&*<4;*-4974*&>>><>:#>>***>3w3>###8i",
"6=&=;;;<;;<61***<,*>*****<<:;797;**1<**&-;-*;<;;6<<,****-&****,<<;*<4<**-;<;===**<<;*-447,**>>>*:>>>>>>3212>>#:#7i",
"660a96690aayrryyay2,17ww77qqwdaw967r97,,7rw9effyrw7w7777<-<8e779wryayrrrade7>38uww990ppsrq37832>>8iwwriiri833837im",
"0ddggddgMAAZMAVVvcw7qhnnxffhvAncfdfvdw79fvnhvAAAvzdhhfhh660fnvfddcZAZAAAAAv7<7gvnhfgjNAVvziffi728zmvxnmAmxzifzfixD",
"0djZjjdjvAHSVSSHncy<wnAGvfhnAAAvffzvzrqenAVcMASSVhzcbvha97eMSVfpfvAAAHHSAmxu2qvAmxgxjDSjjjfhcfe7wxAnvnADGmxxjhjfxD",
"addjjjppyaffshcbhdq<7zvvfiyznvzreryzyq7qzvcrpscchpppaaaw<<wcNvpeyafafvvvxfiw2wxmmiyfjjjjhp0shae7wxvhyifvxxifiyiwiv",
"0a0df0;477755qertt1,3ffdr77wre75456pq1<7afp7459679977773&$7gjs64577<<38wwq73<wixf07806006426w7<<wfjr737w888886868f",
"0pada94;11<**,5775<,qffyw7311,4<44577<<7afy5154-,577773<--6dha54154,#*,73332>7izd8<,;;;644;477<:8fhw32<<-<2766<;8g",
"8edhd9<1677,:13wq3<<wjviw71<,1<677974;49fjd8<42;<8w777776;8dfy77332<<<237873<9fvg862=;66866888220jjd8<;;-<897722ug",
"6wfjd6,-7we7117qq3,,7dvf7<1<456669644-49ffd6-<66468313672;0fjy1<<2763<<2777<<9djj06622;6288632<,8jju<=;<6688862;dZ",
"690r9-*&<67<###>1<,<1wiw<*-<<,,,<-;;-$;40r0;O*<744,::=;2**6au8*+=<78<*#>62;**<0aa4;;=;;=224;**&&<rd6&$*,666<66*&8g",
"644<<&O$*,<:++:>,,,,,375***,*++*$%**&$$-776&.&<,4<***#&=*&;64*O+*=;<<*@*;;*.O*40;&.&===&@&**&*%$*66=Oo*=<<;==;@.6f",
"fp;;;;,;-;,51211177757751<1:**,,;-;44467666;;;;;<5773<<77884,<<1<*=<2<;<2<67467064<;-;<<<<;;45757<<<,,<:,<764444rx",
"Djapaaa945ehziriazvvcccvvzy517affrafhhjhpddpp96;9dhcfhxvvjhdrrifr720iiiuddfvNvjMMhae76rffda0pcMMcaydfdw1<wfhghfhZJ",
"PAjhhcfa77sAAvikzVAHGGHHHva57dAAMhcvCDSVjjjjjd66yhnvnAAAAANvfxvzu77rvmvxdvZDHSAACNNd47dnAmffhVVSAvfzvvy37ynANMDSJE",
"DNffccfr57aAAxiravnnnVVAVvr57xAHvhfhhVVNhhdddp00ivvhhnAVnvvhhhhfr73imDmfrdNANccACNMp44dnDvffhjMVMcadhhr77dANjhjjDU",
"jaepearq11rxvzwqqreetafzzyw13ivxhywwpaddp09000;6fnhewdddr00eayay812yvmxw7wiiw7wfffs7<7yvvdeedffsyrwwyr717yvzp9paxA",
"p9,;47q7,,qiirq11<::*,5qqq7>1rzi964<666444900;;6yjf7<57<2;;<<6773><riiw<<<<<>:<77974,4wfa07467751111qq1#<rfy6;;4wf",
"a4-*<7e7<1wzfw311<,:%,17771>2ixx96;2;4;4444606;;rgf8,<<;<;--;;873<2ixiw131<<,=,<6694,5rffr51<<1-<1133w1:2rzi64;;7i",
"02&-5777<3rvxw1>57q<1,47q73>2uxv0924;44446666666ugf8<<<4<;;<<<807<2rxi8232773<<<59e6,4rccr7<,<1<<771331>3rxi94-;qi",
"0;&;<88<;7yha7,*17w72;,6771<<wfxd6;;4;;6;;;6666;0dp9;;466;=;226u6;60du62;66062;;4786;68gd04;<24266;;66;;60dd9;&&0g",
"u2&&;6<;*<7rq<:%:172<*=<32<>>2ru9;&;;;6;;;;;;;==600;;&;;;;====26;=;600;==;6622==;46;;=7009<-;;;;;6;;;;;;66004;&&6d",
"02&&;;;-&*<<<:%+*<<;*&*=;;>**<27;;&;&;;;&&&&&;;&;64-&&&;;=@@===2=&&66;&@&==22===&;;=&=264;**=--&====;;;;;64;;&..6d",
"u;@@*;;*&*>,,**@#>,=**@***=*@*,=;&.&&&&&&&&&&&&&;;;-.&&&=&@@=@===&&;6=@.&&===&&=&==&&*;2;-&&&==;&==&=;&&;;;&&&..60"
};
